<?xml version="1.0" encoding="utf-8"?>
<!-- Generator: Adobe Illustrator 24.2.1, SVG Export Plug-In . SVG Version: 6.00 Build 0)  -->
<svg version="1.1" id="Layer_1" xmlns="http://www.w3.org/2000/svg" xmlns:xlink="http://www.w3.org/1999/xlink" x="0px" y="0px"
	 viewBox="0 0 200 100" style="enable-background:new 0 0 200 100;" xml:space="preserve">
<style type="text/css">
	.st0{fill:#FF0000;}
	.st1{fill:#FFF6F6;}
</style>
<path class="st0" d="M67,55.1c0.3-0.1,0.4-0.2,0.6-0.2c0.9-0.6,1-0.7,0.5-1.6c-0.6-1.2-1.3-2.4-2.2-3.4c-0.2-0.2-0.3-0.5-0.4-0.8
	h-6.2v4.6c0.6,0.5,1.2,1,1.8,1.6c-2.5,0.1-4.9,0.1-7.4-0.1c0.1-0.1,0.3-0.1,0.4-0.2c0.2,0,0.4,0,0.5-0.1c0.8-0.6,1.4-1.6,1.4-2.6
	c0-2.9-0.1-5.9,0-8.8c0.1-2-0.8-3.2-2.7-4.2h3.8c3.1,0,6.2,0.1,9.3,0c1,0.1,2,0.2,3,0.5c0.8,0.2,1.5,0.7,1.9,1.4
	c0.4,0.6,1.2,1.2,0.9,2.2c0,0.1,0,0.3,0,0.4c0.3,2-0.8,4-2.7,4.7c-0.1,0.1-0.2,0.2-0.3,0.3c-0.1,0.1-0.1,0.2-0.2,0.3
	c0.7,1.1,1.3,2.2,2,3.3c0.5,0.9,1.2,1.7,2.1,2.3c0.4,0.3,0.9,0.4,1.4,0.4C73.4,55.3,70.1,55.4,67,55.1z M69.3,44.2l-1-1.9h-9v3.5
	h8.4L69.3,44.2z"/>
<path class="st1" d="M186.1,55.6c-1.7,0.1-3.5-0.3-5-1.2c-1.9-1.3-3.4-3.2-4.1-5.5c-0.6-1.7,0.3-3.1,0.1-4.6
	c0.9-1.3,1.7-2.8,3.1-3.7c1.3-1.1,3-1.6,4.7-1.6c0.7-0.4,1.6-0.6,2.4-0.4c1.7,0.3,3.5,0.5,5.1,1.5c1.5,0.9,2.7,2.3,3.4,3.9
	c0.5,1,0.8,2.1,0.8,3.2c0,3.9-2.8,7.2-6.6,8C188.7,55.5,187.4,55.7,186.1,55.6z M186.3,52.5h1.7c1.5,0,2.9-0.7,3.8-1.7
	c0.9-0.8,1.3-2,1.2-3.2c0-0.3,0-0.7,0-1c0.1-1.2-0.5-2.3-1.5-3c-2.4-1.8-4.3-2-7.3-1.3c-2.8,0.6-4.5,3.4-3.9,6.2
	c0.3,1.4,1.2,2.6,2.4,3.3C183.8,52.3,185,52.6,186.3,52.5z"/>
<path class="st1" d="M129.9,55.6c-1.5,0-3-0.2-4.5-0.7c-0.5-0.2-1-0.5-1.4-0.9c-1.5-0.8-2.7-2.2-3.3-3.8c-0.8-1.8-0.9-3.9-0.1-5.7
	c0.3-1.1,0.9-2,1.7-2.8c1.6-1.4,3.3-2.6,5.7-2.6c0.6,0,1.1-0.3,1.6-0.3c0.6-0.1,1.2-0.1,1.8,0.1c1.4,0.5,3,0.5,4.4,1.4
	c1.8,1.3,3.2,3,4.1,5c-0.2,1.6,0.1,3.2-0.5,4.9c-0.9,2.5-2.7,3.8-4.9,4.8C133,55.5,131.4,55.7,129.9,55.6z M130.2,52.5
	c0.8,0.1,1.6,0,2.4-0.2c3.1-1.3,4.2-3,3.6-6.3c-0.2-1.4-1.1-2.5-2.3-3.2c-1.7-0.9-3.6-1.2-5.5-0.9c-2.2,0.2-4,1.8-4.6,3.9
	c-0.9,2.6,0.6,5.4,3.2,6.3c0,0,0.1,0,0.1,0C128,52.4,129.1,52.5,130.2,52.5z"/>
<path class="st0" d="M38.7,55.7c-1.6-0.1-3.2-0.4-4.7-0.9c-0.5-0.2-1-0.5-1.4-0.9c-1-0.9-2-1.8-2.9-2.8c-0.7-0.8-0.6-1.8-0.9-2.8
	c-0.2-0.9-0.2-1.8,0-2.7c0.3-1.8,1.2-3.5,2.6-4.6c1.4-1,2.9-2.2,4.9-2.1c0.6-0.1,1.2-0.2,1.8-0.3c0.5-0.1,1.1-0.1,1.6,0
	c1.5,0.6,3.1,0.5,4.6,1.5c1.9,1.2,3.3,3,4,5.1c0.5,1.6,0.3,3.4-0.3,4.9c-0.5,1.5-1.6,2.7-3,3.5c-0.8,0.5-1.6,1-2.4,1.4
	C41.3,55.5,40,55.7,38.7,55.7z M38.5,52.5h1.3c2.4-0.1,4.5-1.8,5.1-4.2c0.3-1.2-0.2-2-0.3-3.1c-0.1-0.9-0.7-1.7-1.5-2.1
	c-1.3-0.7-2.6-1.6-4.2-1.3c-0.3,0-0.7,0-1,0c-2.6,0-6,2.2-5.8,5.7c0.2,2,1.5,3.7,3.3,4.5C36.4,52.4,37.4,52.6,38.5,52.5z"/>
<path class="st0" d="M10.3,49v4.6l1.8,1.6H4.8c1.1-0.2,1.6-1,2.3-1.7c0-3.6-0.1-7.2,0-10.8c0-1.6-0.4-2.8-2.2-3.2
	c-0.1,0-0.1-0.2-0.3-0.4h14.1c1.6,0,3.1,0.6,4.3,1.7c1,0.9,1.4,2.3,1.1,3.6c-0.1,1.3-0.8,2.5-1.8,3.3c-0.3,0.3-0.7,0.5-1.1,0.7
	c-1,0.2-2.1,0.4-3.2,0.4C15.5,49,13,49,10.3,49z M10.3,45.9c2.9,0,5.6,0,8.3,0c1.5,0,2.3-1,2-2.3c-0.1-0.5-0.6-0.8-0.8-1.1h-9.4
	L10.3,45.9z"/>
<path class="st1" d="M105.3,45.8c1.3,0,2.6,0,3.8,0s2.5,0.4,3.3-1c0.2,0.3,0.4,0.4,0.4,0.5c0,1.3,0,2.6,0,4.1
	c-0.3-0.2-0.7-0.3-1-0.5c-0.6-0.2-1.2-0.4-1.8-0.4c-1.5,0.1-3,0-4.7,0c0,1.5,0,3,0,4.5c0,0.7,0.1,1.2,0.9,1.4
	c0.4,0.2,0.8,0.4,1.2,0.7h-7.8c2.1-1.1,2.1-1.1,2.1-3.3v-11l-1.9-1.6c0.3,0,0.7-0.1,1-0.1h14.5c0.4-0.1,0.8-0.1,1.2,0
	c0.3,0.1,0.7,0.5,0.7,0.8c0.1,1.2,0.1,2.5,0,3.7c0,0.2-0.4,0.4-0.5,0.5c-0.3-0.4-0.7-0.8-1-1.3c-0.4-0.5-0.9-0.7-1.5-0.6
	c-2.9,0-5.8,0-8.8,0C105.3,43.4,105.3,44.5,105.3,45.8z"/>
<path class="st1" d="M90,55.1h-8l2.1-1.1V42.4h-4.6L77.9,44c-0.2-1.7,0-3.2-0.1-4.8h16.3v4.5c-0.4,0-0.6-0.4-0.8-0.6
	s-0.6-0.5-0.8-0.8h-4.6c0,3.6,0,7.1,0,10.6C87.7,54.3,88.7,54.6,90,55.1z"/>
<path class="st1" d="M144.6,55.2l1.9-1.5V40.8l-1.8-1.5c0,0.1,0,0,0,0c0,0,0.1-0.1,0.2-0.1h7.3c-0.5,0.4-0.9,0.7-1.3,1
	c-0.8,0.7-1.2,1.6-1.2,2.7c0.1,2.6,0,5.2,0,7.8c0,1.3,0.1,1.4,1.5,1.4c2.4,0,4.9-0.1,7.3,0c1.2,0.2,2.3-0.6,2.6-1.8
	c0.2,0.8,0.2,1.6,0.1,2.5c0,0.8,0,1.5,0,2.4L144.6,55.2z"/>
<path class="st1" d="M168.8,40.8l-1.8-1.5c2.5-0.3,4.9-0.3,7.4,0c-0.3,0.2-0.5,0.3-0.8,0.4c-1.3,0.4-1.6,1.4-1.6,2.7
	c0,3.6,0,7.3,0,11c0.6,0.7,1.2,1.6,2.4,1.7h-7.4c0.7-0.6,1.3-1.1,1.9-1.6L168.8,40.8z"/>
</svg>
